<?xml version="1.0" encoding="UTF-8" standalone="no"?>
<svg
   xmlns:dc="http://purl.org/dc/elements/1.1/"
   xmlns:cc="http://creativecommons.org/ns#"
   xmlns:rdf="http://www.w3.org/1999/02/22-rdf-syntax-ns#"
   xmlns:svg="http://www.w3.org/2000/svg"
   xmlns="http://www.w3.org/2000/svg"
   xmlns:sodipodi="http://sodipodi.sourceforge.net/DTD/sodipodi-0.dtd"
   xmlns:inkscape="http://www.inkscape.org/namespaces/inkscape"
   version="1.1"
   id="svg66"
   width="111.83188mm"
   height="111.83188mm"
   viewBox="0 0 422.67167 422.67167"
   sodipodi:docname="perl.svg"
   inkscape:version="1.0.1 (3bc2e813f5, 2020-09-07)">
  <metadata
     id="metadata72">
    <rdf:RDF>
      <cc:Work
         rdf:about="">
        <dc:format>image/svg+xml</dc:format>
        <dc:type
           rdf:resource="http://purl.org/dc/dcmitype/StillImage" />
        <dc:title></dc:title>
      </cc:Work>
    </rdf:RDF>
  </metadata>
  <defs
     id="defs70" />
  <sodipodi:namedview
     units="mm"
     fit-margin-right="10"
     fit-margin-bottom="1"
     fit-margin-left="10"
     fit-margin-top="10"
     inkscape:document-rotation="0"
     pagecolor="#ffffff"
     bordercolor="#666666"
     borderopacity="1"
     objecttolerance="10"
     gridtolerance="10"
     guidetolerance="10"
     inkscape:pageopacity="0"
     inkscape:pageshadow="2"
     inkscape:window-width="2488"
     inkscape:window-height="1376"
     id="namedview68"
     showgrid="false"
     inkscape:zoom="0.42480469"
     inkscape:cx="-557.50206"
     inkscape:cy="457.61618"
     inkscape:window-x="72"
     inkscape:window-y="27"
     inkscape:window-maximized="1"
     inkscape:current-layer="g74" />
  <g
     transform="translate(-55.372469,-29.984044)"
     inkscape:groupmode="layer"
     inkscape:label="Image"
     id="g74">
    <g
       id="g31"
       transform="translate(403.32113,-62.059658)">
      <path
         style="fill:#2962ff;stroke-width:1.66455"
         d="m -212.1597,435.74078 c -14.46867,-1.47712 -13.41247,-1.23815 -31.00473,-7.01428 -15.83105,-5.19786 -36.70303,-15.94694 -47.01087,-24.21065 -21.61301,-17.32695 -41.54268,-41.47257 -47.83876,-57.95863 -1.52236,-3.98623 -3.54005,-7.24771 -4.48376,-7.24771 -0.9437,0 -1.21384,-0.50199 -0.60029,-1.11553 0.61354,-0.61355 0.11234,-2.67343 -1.11379,-4.5775 -2.35811,-3.66198 -6.64685,-19.00132 -8.64688,-30.92697 -3.77005,-22.47973 -3.77005,-35.77939 0,-58.2591 1.76884,-10.5471 6.2017,-27.27203 7.76124,-29.2827 0.77542,-0.99974 0.91699,-2.31057 0.3146,-2.91296 -0.60239,-0.60239 -0.22137,-1.09525 0.84672,-1.09525 1.06808,0 1.7547,-0.65799 1.52583,-1.46219 -0.3927,-1.37981 8.55244,-20.05637 10.46096,-21.84145 0.48941,-0.45775 3.59751,-4.95203 6.90689,-9.98728 6.26721,-9.53559 26.24493,-29.69807 36.31375,-36.64959 3.20425,-2.21221 6.74854,-4.91599 7.87621,-6.0084 1.12767,-1.09241 5.43468,-3.2787 9.57114,-4.85843 4.13646,-1.57972 7.52083,-3.48434 7.52083,-4.23248 0,-1.49627 29.48695,-11.40431 37.45228,-12.5845 2.7465,-0.40694 7.16528,-1.45383 9.81952,-2.32643 7.49009,-2.46241 41.05758,-1.91046 52.05036,0.85586 5.33806,1.34331 12.13884,2.85189 15.11284,3.35239 10.5026,1.76749 47.02593,18.18088 47.02593,21.1332 0,0.75311 0.74257,1.36929 1.65014,1.36929 6.602223,0 46.621678,41.00714 46.621678,47.7723 0,1.19024 0.571422,2.16407 1.269832,2.16407 0.69841,0 2.00924,1.42924 2.912955,3.17609 4.862354,9.39874 9.477606,19.64349 10.007598,22.21449 0.330995,1.60556 1.194561,3.8527 1.919071,4.99363 0.72451,1.14094 1.393458,2.44895 1.486539,2.9067 0.09305,0.45775 0.616814,1.95584 1.16385,3.32909 3.0344,7.61755 6.983735,35.38615 6.983735,49.1041 0,13.71793 -3.949335,41.48655 -6.983735,49.10409 -0.547036,1.37325 -1.112732,2.87134 -1.257131,3.32909 -2.603316,8.2527 -14.479383,31.68488 -20.669112,40.78137 -7.570154,11.12518 -13.017879,17.27579 -23.827638,26.90197 -15.163495,13.50323 -17.601838,15.33275 -26.673092,20.01308 -4.81434,2.48397 -9.13748,5.06031 -9.60699,5.72517 -0.46952,0.66487 -5.33832,2.82091 -10.81955,4.79118 -5.48123,1.97029 -11.08945,4.02143 -12.4627,4.55808 -1.37325,0.53665 -3.05861,1.13405 -3.74523,1.32756 -0.68663,0.19352 -1.43567,0.50277 -1.66455,0.68725 -0.22887,0.18449 -1.5397,0.60886 -2.91295,0.94304 -1.37325,0.33419 -4.36943,1.08719 -6.65818,1.67335 -6.08502,1.55838 -29.73074,3.93643 -37.45228,3.76656 -3.662,-0.0806 -12.27603,-0.72 -19.14228,-1.42097 z m 23.30364,-28.1849 c 0,-7.76789 -0.55484,-9.98727 -2.49682,-9.98727 -1.90728,0 -2.49681,2.09609 -2.49681,8.87757 0,4.88268 0.49936,9.37695 1.1097,9.98727 2.80892,2.80894 3.88393,0.35177 3.88393,-8.87757 z m -18.31,3.32909 c 3.31151,-3.3115 4.65191,-11.65182 1.87261,-11.65182 -0.80106,0 -1.89385,2.1869 -2.42842,4.85976 -0.57697,2.88481 -2.35265,5.29798 -4.36944,5.93808 -1.86861,0.59308 -3.39748,1.77689 -3.39748,2.6307 0,2.71378 4.87237,1.67363 8.32273,-1.77672 z m 37.12298,0.16429 c -2.01212,-1.67974 -4.15319,-5.02551 -4.75795,-7.43507 -1.12901,-4.49836 -3.10521,-5.62054 -4.86981,-2.76535 -1.25,2.02254 3.32949,11.10557 6.17681,12.25119 5.16901,2.07973 7.05571,0.95855 3.45095,-2.05077 z m 20.30384,-15.93742 c 1.83101,-0.75158 7.82337,-3.21213 13.31637,-5.46789 5.493,-2.25574 10.3618,-4.66171 10.81955,-5.34655 0.45775,-0.68486 3.26788,-2.49314 6.24474,-4.01841 7.87531,-4.03511 24.053183,-20.51841 29.591259,-30.14993 2.632046,-4.5775 5.447259,-8.781 6.256028,-9.3411 0.80877,-0.56012 1.359302,-1.51409 1.223408,-2.11993 -0.135827,-0.60586 1.298229,-5.23175 3.186922,-10.27975 4.291199,-11.46924 4.901821,-42.26728 1.022131,-51.5527 -1.326543,-3.17484 -2.115138,-5.77244 -1.75245,-5.77244 0.362705,0 -2.904349,-5.24089 -7.260115,-11.64642 -7.279225,-10.70476 -22.257243,-24.91263 -36.847383,-34.95276 -3.20425,-2.20499 -6.20043,-4.41968 -6.65818,-4.92154 -0.45775,-0.50186 -3.45393,-2.35415 -6.65818,-4.1162 -3.20425,-1.76205 -6.20044,-3.67063 -6.65819,-4.24128 -0.45775,-0.57066 -4.5775,-3.18597 -9.155,-5.81182 -21.21193,-12.16804 -25.79035,-18.50453 -26.82576,-37.12661 -1.02685,-18.4679 -1.52896,-19.86408 -7.98316,-22.19795 l -5.66911,-2.04998 0.0601,-11.78841 c 0.0808,-15.81673 -0.16102,-17.18047 -3.25688,-18.36847 -3.74183,-1.43587 -5.37416,1.95655 -5.40378,11.23053 -0.0173,5.40663 -0.69639,7.89244 -2.10617,7.70937 -5.48864,-0.71273 -5.85761,0.33229 -6.03279,17.08673 -0.20493,19.59915 -1.34437,27.15787 -4.97067,32.97389 -5.05459,8.10677 -24.73797,25.39034 -34.90102,30.64585 -2.73069,1.4121 -5.97217,3.54838 -7.20328,4.74728 -1.23111,1.1989 -5.16948,4.39463 -8.75193,7.10163 -11.99558,9.06418 -30.93873,28.91579 -30.93873,32.42245 0,0.90854 -0.56179,1.66048 -1.24841,1.67099 -0.68663,0.0105 -2.64145,3.19394 -4.34404,7.07432 -1.7026,3.88037 -3.91507,8.55331 -4.9166,10.38431 -2.32019,4.24179 -3.21342,38.66936 -1.03816,40.01374 0.88783,0.54872 1.25165,1.58434 0.80849,2.30139 -1.08198,1.75068 7.98825,25.82729 10.70952,28.42806 0.47896,0.45775 2.91377,3.84731 5.4107,7.53237 4.7453,7.00329 16.70999,19.10036 18.89134,19.10036 0.69601,0 2.45247,1.07421 3.90324,2.38714 4.58287,4.14743 28.89511,15.37045 37.9106,17.50028 9.03593,2.13465 12.14696,1.50329 12.14696,-2.46519 0,-2.29318 -9.57153,-8.46155 -12.06795,-7.77719 -0.68663,0.18823 -1.24841,-0.40681 -1.24841,-1.32231 0,-0.9155 -0.56179,-1.48694 -1.24841,-1.26985 -2.76359,0.87375 -17.28013,-10.96393 -27.457,-22.39011 -11.12995,-12.49624 -15.96024,-20.20354 -17.30313,-27.60915 -0.42486,-2.34295 -1.2597,-5.04827 -1.85521,-6.01182 -2.86943,-4.64284 -2.86294,-31.11176 0.01,-39.26272 5.30623,-15.05653 6.86955,-18.70128 8.88657,-20.7183 1.29115,-1.29115 2.36757,-2.96284 2.39205,-3.71485 0.0245,-0.75202 2.83339,-4.43235 6.24204,-8.17851 3.40865,-3.74616 10.42145,-11.61114 15.58399,-17.47773 5.16252,-5.86659 14.03811,-15.53532 19.72352,-21.48607 11.68769,-12.23317 21.37523,-25.833 22.47707,-31.5544 1.46208,-7.59196 2.87952,-5.73046 1.90458,2.50126 -1.04161,8.79464 -3.88413,18.6252 -6.27916,21.71584 -0.77472,0.99973 -0.91572,2.31056 -0.31333,2.91295 0.60239,0.60239 0.22137,1.09526 -0.84672,1.09526 -1.06808,0 -1.94197,0.80134 -1.94197,1.78077 0,2.37631 -10.00835,17.00827 -12.78587,18.69262 -1.20727,0.73212 -2.19504,2.23786 -2.19504,3.3461 0,1.10824 -1.70036,3.87994 -3.77858,6.15934 -2.07823,2.27939 -6.17828,7.88958 -9.11123,12.46708 -2.93296,4.5775 -6.09874,9.22459 -7.03508,10.32685 -0.93633,1.10227 -3.35716,5.97107 -5.37962,10.81955 -5.39305,12.9289 -5.19408,39.64234 0.40042,53.75815 2.17703,5.493 3.80226,10.54906 3.61162,11.23569 -0.19064,0.68662 0.25827,1.2484 0.99759,1.2484 0.73931,0 2.5942,2.83318 4.12197,6.29595 4.73123,10.72357 29.22428,36.98224 34.49558,36.98224 0.90853,0 1.65188,0.74905 1.65188,1.66455 0,2.45467 4.28866,2.02282 6.51164,-0.6557 1.48035,-1.78371 1.26374,-3.70826 -0.93675,-8.32273 -1.57431,-3.30136 -3.4727,-6.00248 -4.21864,-6.00248 -0.74594,0 -1.35625,-1.06115 -1.35625,-2.35812 0,-1.29694 -0.56178,-2.60777 -1.24841,-2.91295 -1.88205,-0.83647 -12.44829,-16.36803 -11.13529,-16.36803 0.62673,0 0.1521,-1.18976 -1.05475,-2.64391 -2.55383,-3.0772 -7.88968,-17.58451 -9.12928,-24.82109 -0.47046,-2.7465 -1.29637,-6.43953 -1.83535,-8.20673 -2.96357,-9.71691 0.53995,-33.24076 7.2372,-48.59314 1.54824,-3.54908 2.86048,-6.99036 2.91611,-7.64731 0.0556,-0.65694 1.2247,-2.53494 2.59795,-4.17332 1.37325,-1.63839 3.97799,-5.78242 5.7883,-9.20897 1.81031,-3.42655 3.99503,-6.23008 4.85492,-6.23008 0.8599,0 1.12263,-0.44083 0.58385,-0.97961 -0.53878,-0.53878 1.20899,-4.43065 3.88394,-8.64861 2.67494,-4.21796 4.86354,-8.87064 4.86354,-10.33931 0,-1.46866 0.75102,-3.42132 1.66894,-4.33923 2.82206,-2.82206 4.84056,-25.47373 4.0638,-45.60416 -0.56205,-14.56607 -0.32611,-17.94848 0.98695,-14.14864 2.33397,6.75421 2.29497,44.55474 -0.0594,57.6617 -1.0458,5.82157 -3.33787,15.45347 -5.09354,21.40422 -1.75568,5.95075 -3.50406,12.69216 -3.88528,14.98091 -0.38123,2.28875 -1.99568,10.90277 -3.58768,19.14227 -5.6692,29.34137 -2.9188,85.98862 4.62688,95.29524 0.92784,1.14438 1.21354,2.08068 0.63488,2.08068 -1.50159,0 7.09364,16.06437 9.79462,18.30596 1.23865,1.02801 4.36813,2.1469 6.95439,2.48643 2.58625,0.33954 4.88955,0.76258 5.11843,0.94009 0.22887,0.17752 1.1483,0.41638 2.04316,0.53082 2.54208,0.32509 15.01843,8.34691 15.01843,9.6563 0,1.42065 6.23895,0.79473 10.81954,-1.08545 z"
         id="path25"
         transform="translate(55.372469,29.984044)" />
      <path
         style="fill:#2962ff;stroke-width:0.416136"
         d="m -141.296,378.252 c 0,-0.43868 -0.23408,-0.88045 -0.52017,-0.98172 -0.32373,-0.11459 0.0299,-0.67522 0.93631,-1.4845 1.08234,-0.96636 1.26941,-1.3021 0.72824,-1.30704 -0.77562,-0.007 -0.84388,0.10261 1.57982,-2.53837 0.33269,-0.36252 0.60489,-0.97112 0.60489,-1.35245 0,-0.38133 0.28089,-0.69333 0.62421,-0.69333 0.34331,0 0.6242,-0.29715 0.6242,-0.66035 0,-0.36319 0.56553,-0.87381 1.25672,-1.13471 0.69119,-0.26089 1.18281,-0.66695 1.09248,-0.90235 -0.21432,-0.55849 0.79625,-1.49935 1.21034,-1.12683 0.17551,0.1579 0.19753,0.0742 0.0489,-0.18593 -0.14861,-0.26016 0.009,-0.70443 0.34942,-0.98727 0.34079,-0.28283 0.61962,-0.76561 0.61962,-1.07285 0,-0.30723 0.37452,-0.75904 0.83227,-1.00402 0.45775,-0.24498 0.83228,-0.69969 0.83228,-1.01046 0,-0.31078 0.3277,-0.70935 0.72824,-0.88573 0.68893,-0.30338 0.92467,-0.38522 1.66454,-0.57787 0.17166,-0.0447 -0.0624,-0.2422 -0.52017,-0.4389 -0.71168,-0.30582 -0.72676,-0.36188 -0.10403,-0.38689 0.40053,-0.0161 0.72824,-0.22756 0.72824,-0.46994 0,-0.24239 0.17432,-0.33296 0.38738,-0.20128 0.21306,0.13168 0.505,0.0491 0.64876,-0.18351 0.14376,-0.23261 0.0163,-0.42862 -0.28335,-0.43558 -0.33614,-0.008 -0.26587,-0.17507 0.18351,-0.43681 0.40053,-0.23329 0.72824,-0.74776 0.72824,-1.14328 0,-0.86977 1.30179,-2.06533 1.99665,-1.83371 0.27509,0.0917 0.50017,-0.0362 0.50017,-0.2841 0,-0.24794 -0.23408,-0.45368 -0.52017,-0.45718 -0.40087,-0.005 -0.39641,-0.0849 0.0194,-0.34868 0.29679,-0.18826 0.85857,-0.98126 1.24841,-1.76221 0.38984,-0.78094 0.92727,-1.4199 1.19429,-1.4199 0.83514,0 1.18271,-0.6523 0.55446,-1.04058 -0.50609,-0.31278 -0.48785,-0.41435 0.11609,-0.6461 0.39411,-0.15123 0.71657,-0.65417 0.71657,-1.11762 0,-0.46346 0.69942,-1.50229 1.55427,-2.30852 1.43353,-1.35199 1.4901,-1.48973 0.72824,-1.77305 -0.75843,-0.28204 -0.76644,-0.33151 -0.0978,-0.60444 0.43998,-0.17959 0.72824,-0.74134 0.72824,-1.41916 0,-0.61705 0.59358,-1.92906 1.31907,-2.91557 1.15207,-1.56658 1.25198,-1.90109 0.78917,-2.64217 -0.445,-0.71257 -0.42299,-0.90834 0.1374,-1.22195 0.41011,-0.22951 0.6833,-0.96694 0.70879,-1.91328 0.0358,-1.32792 0.0814,-1.39666 0.33126,-0.49949 0.24993,0.89725 0.32915,0.93792 0.57598,0.29565 0.15741,-0.40958 0.0691,-1.09232 -0.19624,-1.51719 -0.38557,-0.61741 -0.34245,-0.91248 0.21482,-1.46975 0.38349,-0.38349 0.69726,-1.0584 0.69726,-1.4998 0,-0.4414 0.16601,-0.80255 0.3689,-0.80255 0.70248,0 0.83986,-2.67335 0.16465,-3.20402 -0.56739,-0.44592 -0.56313,-0.57108 0.0399,-1.1741 0.50582,-0.50582 0.6925,-1.57997 0.74492,-4.28643 0.0671,-3.46483 0.0799,-3.51009 0.31536,-1.11465 l 0.2454,2.49681 0.32184,-2.28875 c 0.18606,-1.32316 0.14079,-3.2344 -0.10729,-4.53026 -0.55041,-2.87502 -0.53536,-9.28311 0.0275,-11.69906 0.26018,-1.11681 0.30484,-2.79637 0.11065,-4.16136 l -0.32561,-2.28875 -0.26351,2.08068 c -0.23896,1.88682 -0.2696,1.77355 -0.32889,-1.21564 -0.0487,-2.45826 -0.24632,-3.49627 -0.77707,-4.08274 -0.45551,-0.50333 -0.55693,-0.8896 -0.28175,-1.0731 0.77153,-0.51448 0.93818,-1.61921 0.40058,-2.65544 -0.28986,-0.55871 -0.65313,-1.51831 -0.80728,-2.13246 -0.15411,-0.61415 -0.46613,-1.11664 -0.69335,-1.11664 -0.24098,0 -0.32713,-0.73695 -0.20674,-1.76858 0.15837,-1.35717 0.12076,-1.52658 -0.16167,-0.72824 -0.32337,0.91401 -0.37309,0.82558 -0.40954,-0.72824 -0.0323,-1.37758 -0.20248,-1.77584 -0.76972,-1.80143 -0.43504,-0.0196 -0.51881,-0.11736 -0.20807,-0.24275 0.8847,-0.35698 0.57738,-1.82115 -0.72824,-3.46963 -0.68662,-0.86693 -1.2484,-2.06426 -1.2484,-2.66073 0,-0.74291 -0.22938,-1.09484 -0.72824,-1.11735 -0.43505,-0.0196 -0.51882,-0.11735 -0.20807,-0.24274 0.87032,-0.35118 0.58283,-1.69539 -0.55383,-2.58948 -0.81224,-0.63891 -1.00843,-1.07731 -0.80501,-1.79879 0.20946,-0.74287 0.17228,-0.81585 -0.16804,-0.32977 -0.37549,0.53631 -0.43792,0.51982 -0.4434,-0.11709 -0.003,-0.40772 -0.30119,-0.85444 -0.66153,-0.99271 -0.43485,-0.16687 -0.57745,-0.56103 -0.42407,-1.17217 0.17544,-0.69898 -0.0176,-1.03406 -0.80131,-1.39115 -0.6938,-0.31612 -1.03241,-0.80776 -1.03241,-1.49899 0,-0.56572 -0.32771,-1.21946 -0.72824,-1.45274 -0.40416,-0.2354 -0.49675,-0.4298 -0.20807,-0.43682 0.28609,-0.007 0.52017,-0.21552 0.52017,-0.46346 0,-0.24795 -0.22508,-0.3758 -0.50017,-0.2841 -0.70715,0.23572 -1.99665,-0.97034 -1.99665,-1.86745 0,-0.41407 -0.27376,-0.85791 -0.60836,-0.9863 -0.60404,-0.2318 -1.11327,-1.29027 -1.42668,-2.96549 -0.0321,-0.17165 -0.23991,-0.0312 -0.46178,0.3121 -0.34474,0.53345 -0.40432,0.51832 -0.40976,-0.10403 -0.004,-0.40053 -0.19364,-0.72824 -0.42251,-0.72824 -0.22888,0 -0.41614,-0.17285 -0.41614,-0.38413 0,-0.21126 -0.51497,-0.94244 -1.14437,-1.62483 -3.0029,-3.25567 -3.79273,-4.23309 -3.42066,-4.23309 0.22202,0 0.40367,-0.18138 0.40367,-0.40307 0,-0.22169 -0.28089,-0.29529 -0.62421,-0.16355 -0.34331,0.13175 -0.64761,0.0322 -0.67622,-0.22113 -0.12141,-1.07521 -0.17128,-1.2388 -0.46815,-1.53567 -0.17166,-0.17166 -0.3121,-0.0863 -0.3121,0.18979 0,0.37514 -0.14603,0.36638 -0.57816,-0.0347 -0.40508,-0.37596 -0.44045,-0.62285 -0.11813,-0.82479 0.27155,-0.17013 -0.0434,-0.47959 -0.7686,-0.75533 -1.57924,-0.60042 -2.87376,-1.9326 -2.16402,-2.22696 0.29639,-0.12294 0.11799,-0.32918 -0.42842,-0.49527 -0.53881,-0.16378 -0.93631,-0.61733 -0.93631,-1.06834 0,-0.98858 -0.82066,-1.04123 -0.86513,-0.0555 -0.0262,0.58006 -0.0812,0.60123 -0.27046,0.10403 -0.13069,-0.34331 -0.44361,-0.76178 -0.69539,-0.92993 -0.31129,-0.20791 -0.28347,-0.30777 0.087,-0.31211 0.2996,-0.003 0.42111,-0.2064 0.27001,-0.45088 -0.1511,-0.24447 -0.53667,-0.34398 -0.85683,-0.22112 -0.32016,0.12285 -0.58211,0.042 -0.58211,-0.1797 0,-0.22169 -0.2809,-0.40308 -0.62421,-0.40308 -0.34331,0 -0.6242,-0.28089 -0.6242,-0.6242 0,-0.34332 -0.18139,-0.62421 -0.40308,-0.62421 -0.22169,0 -0.29529,-0.28089 -0.16355,-0.6242 0.13175,-0.34332 0.0322,-0.62421 -0.22112,-0.62421 -0.25337,0 -0.46066,0.1681 -0.46066,0.37356 0,0.20546 -1.34394,-0.91811 -2.98654,-2.49682 -1.64259,-1.5787 -3.14068,-2.87037 -3.32909,-2.87037 -0.52729,0 -1.96931,-1.56363 -1.695,-1.83794 0.13351,-0.13351 -0.0694,-0.24275 -0.45081,-0.24275 -0.38146,0 -0.69356,-0.27838 -0.69356,-0.61862 0,-0.34024 -0.64875,-0.88968 -1.44167,-1.22098 -0.94122,-0.39327 -1.5347,-0.97303 -1.70966,-1.67013 -0.14739,-0.58727 -0.446,-1.06777 -0.66357,-1.06777 -0.21757,0 -0.27985,0.18726 -0.1384,0.41614 0.44005,0.71202 -0.12571,0.45827 -1.15976,-0.52017 -2.74953,-2.60166 -4.01205,-3.64119 -4.42224,-3.64119 -0.24859,0 -0.45198,-0.2809 -0.45198,-0.62421 0,-0.34331 -0.28089,-0.6242 -0.6242,-0.6242 -0.34331,0 -0.62421,-0.29843 -0.62421,-0.66317 0,-0.36474 -0.37452,-0.7611 -0.83227,-0.8808 -0.45775,-0.11971 -0.83227,-0.44011 -0.83227,-0.712 0,-0.27189 -0.63386,-1.18636 -1.40857,-2.03215 -0.77471,-0.84578 -1.22726,-1.53779 -1.00566,-1.53779 0.56663,0 0.16217,-1.02898 -0.42937,-1.09236 -0.26702,-0.0286 -0.67739,-0.0754 -0.91193,-0.10404 -0.23454,-0.0286 -0.60443,-0.52017 -0.82197,-1.09235 -0.21755,-0.57219 -0.60117,-1.04034 -0.85249,-1.04034 -0.25132,0 -0.391,-0.32771 -0.3104,-0.72824 0.0806,-0.40053 -0.28019,-1.06954 -0.80176,-1.48668 -0.52157,-0.41715 -0.94831,-1.11007 -0.94831,-1.53984 0,-0.42976 -0.32771,-0.97226 -0.72824,-1.20555 -0.69356,-0.40396 -0.69356,-0.42476 0,-0.43681 0.84464,-0.0147 0.88518,-0.19027 0.29746,-1.28842 -0.33894,-0.63333 -0.29458,-0.80492 0.20807,-0.80492 0.35137,0 0.63885,0.2126 0.63885,0.47245 0,0.42809 1.88937,2.44051 2.29127,2.44051 0.34624,0 2.28623,2.13473 2.28623,2.51573 0,0.21847 0.26827,0.39722 0.59616,0.39722 0.32789,0 0.71503,0.37452 0.86032,0.83227 0.14528,0.45775 0.53242,0.83228 0.86031,0.83228 0.32789,0 0.59616,0.17874 0.59616,0.39722 0,0.51617 1.99956,2.51573 2.51574,2.51573 0.21847,0 0.39722,0.28089 0.39722,0.62421 0,0.34331 0.26827,0.6242 0.59616,0.6242 0.32789,0 0.71503,0.37452 0.86032,0.83227 0.14528,0.45775 0.53242,0.83228 0.86031,0.83228 0.32789,0 0.59616,0.17874 0.59616,0.39722 0,0.51617 1.99956,2.51573 2.51574,2.51573 0.21847,0 0.39722,0.17875 0.39722,0.39722 0,0.49162 1.98829,2.51574 2.47121,2.51574 0.19398,0 0.46049,0.28089 0.59223,0.6242 0.13174,0.34331 0.5263,0.6242 0.87679,0.6242 0.3505,0 0.63727,0.2809 0.63727,0.62421 0,0.34331 0.19831,0.6242 0.44069,0.6242 0.24239,0 0.33296,0.17433 0.20128,0.38739 -0.13167,0.21306 -0.0491,0.505 0.18351,0.64876 0.23261,0.14376 0.42862,0.0162 0.43558,-0.28335 0.008,-0.33614 0.17508,-0.26587 0.43682,0.18351 0.23328,0.40053 0.68215,0.72824 0.99748,0.72824 0.31533,0 0.9354,0.4603 1.37794,1.0229 0.44253,0.56259 1.34305,1.26482 2.00114,1.56051 1.35793,0.61013 2.7019,1.8179 2.38052,2.13929 -0.11801,0.118 0.17849,0.11176 0.65888,-0.0139 0.62116,-0.16244 0.87343,-0.0341 0.87343,0.44433 0,0.41156 0.3635,0.68409 0.93631,0.70199 0.8934,0.0279 0.89817,0.0456 0.10403,0.38689 -0.81094,0.34847 -0.64893,0.50007 0.62421,0.5841 0.34331,0.0227 0.63271,0.32184 0.64312,0.66485 0.0104,0.34301 0.27413,0.56696 0.58607,0.49766 0.31193,-0.0693 0.67794,0.0243 0.81336,0.20807 0.31684,0.42992 2.84694,2.20668 3.1423,2.20668 0.12371,0 0.59944,0.37452 1.05719,0.83227 0.45775,0.45775 0.61381,0.83227 0.34678,0.83227 -0.53936,0 -0.0824,0.59406 0.52017,0.67623 0.20981,0.0286 0.56285,0.0754 0.78454,0.10403 0.22169,0.0286 0.29529,0.33291 0.16355,0.67622 -0.13175,0.34331 -0.0323,0.62421 0.22112,0.62421 0.25337,0 0.46066,-0.17128 0.46066,-0.38063 0,-0.36102 1.91557,1.14676 4.05216,3.18955 0.53862,0.51497 1.13802,0.9363 1.33201,0.9363 0.19398,0 0.46049,0.2809 0.59223,0.62421 0.13174,0.34331 0.5263,0.6242 0.8768,0.6242 0.35049,0 0.63726,0.24713 0.63726,0.54916 0,0.65703 1.87225,2.36115 2.60402,2.37017 0.36901,0.005 0.35236,0.11065 -0.0581,0.37064 -0.45248,0.28658 -0.38772,0.42376 0.30365,0.6432 0.48334,0.1534 0.86043,0.40795 0.83798,0.56566 -0.11497,0.80746 0.11597,1.04861 0.47386,0.49481 0.34474,-0.53344 0.40432,-0.51832 0.40977,0.10403 0.004,0.41124 0.32337,0.73102 0.73461,0.73461 0.57755,0.005 0.60923,0.0817 0.15308,0.37065 -0.45248,0.28658 -0.38771,0.42376 0.30365,0.64319 0.48334,0.15341 0.86043,0.40796 0.83798,0.56566 -0.11497,0.80746 0.11598,1.04861 0.47387,0.49482 0.26101,-0.40389 0.40564,-0.44328 0.40976,-0.11161 0.003,0.28193 0.61497,1.15738 1.35882,1.94544 0.74384,0.78806 1.72696,1.92679 2.18471,2.53052 0.45775,0.60372 1.15998,1.40843 1.56051,1.78823 0.40054,0.37981 0.72824,0.92984 0.72824,1.22228 0,0.29245 0.32771,0.54489 0.72824,0.56098 0.66133,0.0265 0.65763,0.057 -0.0403,0.3317 -0.69789,0.27462 -0.70746,0.35318 -0.10404,0.85397 0.3655,0.30334 0.66455,0.42838 0.66455,0.27787 0,-0.15052 0.37453,-0.0732 0.83228,0.17175 0.45775,0.24498 0.83227,0.69679 0.83227,1.00403 0,0.30724 0.2832,0.79365 0.62933,1.08091 0.51292,0.42569 0.53217,0.64198 0.10404,1.16921 -0.44355,0.54623 -0.41263,0.60469 0.1987,0.37562 0.54034,-0.20248 0.79181,-0.001 0.99134,0.7939 0.19792,0.78857 0.35946,0.91984 0.62207,0.50548 0.25808,-0.40722 0.35647,-0.31025 0.3611,0.35591 0.003,0.5036 0.33408,1.10877 0.73461,1.34483 0.63218,0.37259 0.64636,0.48282 0.10752,0.83562 -0.49436,0.32368 -0.51554,0.51162 -0.10404,0.92312 0.28418,0.28418 0.51669,0.35696 0.51669,0.16172 0,-0.19523 0.37453,0.0769 0.83228,0.60465 0.45775,0.52779 0.83227,1.28546 0.83227,1.6837 0,0.39824 0.26635,0.82629 0.5919,0.95121 0.35549,0.13642 0.50477,0.56035 0.37374,1.06139 -0.14314,0.54736 0.15417,1.20658 0.86458,1.91698 0.68274,0.68274 1.08273,1.54177 1.08273,2.32529 0,0.72985 0.26194,1.34307 0.63483,1.48616 0.48649,0.18668 0.52425,0.37684 0.1616,0.81381 -0.54873,0.66117 -0.13924,2.81902 0.46418,2.44608 0.22217,-0.1373 0.40394,0.1159 0.40394,0.56267 0,0.44677 0.28089,0.92009 0.624203,1.05184 0.45572,0.17487 0.624205,0.892 0.624205,2.65681 0,1.54065 0.241055,2.76144 0.664699,3.36628 0.545738,0.77915 0.577223,1.16016 0.175926,2.12898 -0.509792,1.23075 -0.183662,5.17127 0.398226,4.81165 0.336325,-0.20787 0.945761,6.42257 0.93656,10.18943 -0.01024,4.19633 -0.619248,11.3175 -0.925491,10.82199 -0.166201,-0.26892 -0.432728,0.66491 -0.592283,2.07518 -0.194086,1.7155 -0.132377,2.75415 0.186454,3.13832 0.36399,0.43858 0.320583,0.79689 -0.18377,1.51696 -0.363175,0.5185 -0.663188,1.50967 -0.666692,2.20259 -0.0043,0.84828 -0.121316,1.07852 -0.358227,0.70479 -0.280676,-0.44278 -0.40566,-0.41485 -0.61783,0.13806 -0.39033,1.01719 -0.33432,1.15647 0.358223,0.89072 0.343313,-0.13174 0.624205,-0.0811 0.624205,0.11259 0,0.19367 -0.280892,0.58524 -0.624205,0.87017 -0.343313,0.28492 -0.624203,0.776 -0.624203,1.09129 0,0.31529 -0.16723,0.57325 -0.37162,0.57325 -0.59416,0 -0.95116,1.3614 -0.43986,1.6774 0.31161,0.19259 0.24759,0.37094 -0.19397,0.54038 -0.40288,0.15459 -0.65912,0.74843 -0.65912,1.52745 0,0.74903 -0.25736,1.37329 -0.6242,1.51406 -0.34331,0.13174 -0.62421,0.51144 -0.62421,0.84377 0,0.33233 -0.17432,0.49651 -0.38738,0.36483 -0.21306,-0.13168 -0.51794,-0.0282 -0.67752,0.23003 -0.15957,0.2582 -0.0373,0.6257 0.27169,0.81668 0.44883,0.27739 0.4177,0.40253 -0.15476,0.6222 -0.39411,0.15123 -0.71657,0.68147 -0.71657,1.17831 0,0.9609 -1.40575,2.4568 -1.87127,1.99128 -0.15239,-0.15239 -0.14791,0.23752 0.01,0.86645 0.18741,0.74667 0.12228,1.14353 -0.18765,1.14353 -0.26106,0 -0.64401,0.42133 -0.85101,0.9363 -0.346,0.86082 -0.37898,0.86921 -0.4091,0.10404 -0.0264,-0.67043 -0.10709,-0.71475 -0.41505,-0.22794 -0.21027,0.33238 -0.28916,0.75505 -0.17532,0.93925 0.11384,0.1842 -0.0739,0.44271 -0.41732,0.57447 -0.34337,0.13177 -0.52246,0.50497 -0.39799,0.82934 0.12447,0.32437 0.0373,0.58976 -0.19364,0.58976 -0.23097,0 -0.61578,0.56179 -0.85514,1.24841 -0.23936,0.68663 -0.6322,1.27182 -0.87298,1.30043 -0.85082,0.10109 -1.0681,0.17266 -1.65857,0.54631 -0.49231,0.31153 -0.45594,0.43259 0.20806,0.69262 0.70163,0.27476 0.71141,0.31885 0.0764,0.34435 -0.40054,0.0161 -0.72824,0.31602 -0.72824,0.66651 0,0.3505 -0.27377,0.74232 -0.60837,0.87072 -0.3346,0.1284 -0.72761,0.60916 -0.87335,1.06836 -0.2448,0.77131 -1.71351,2.52668 -1.95141,2.33229 -0.0572,-0.0468 -0.5214,0.27236 -1.03152,0.70913 -0.67824,0.58073 -0.79007,0.88144 -0.41613,1.11897 0.35757,0.22716 0.29235,0.32676 -0.21689,0.33122 -0.40054,0.003 -0.72824,0.28067 -0.72824,0.61593 0,0.53922 -1.6533,1.77777 -2.01133,1.50676 -0.0763,-0.0577 -0.24795,0.004 -0.38146,0.13775 -0.13351,0.13351 -0.0126,0.24275 0.26871,0.24275 0.2813,0 -1.34811,1.87261 -3.62092,4.16136 -2.2728,2.28875 -4.39694,4.16136 -4.7203,4.16136 -0.32336,0 -0.79997,0.56179 -1.05914,1.24841 -0.25917,0.68663 -0.74835,1.24841 -1.08705,1.24841 -0.33871,0 -0.72362,0.28089 -0.85536,0.62421 -0.13175,0.34331 -0.62581,0.6242 -1.09793,0.6242 -0.47211,0 -0.9722,0.29659 -1.11131,0.6591 -0.18565,0.48378 -0.33583,0.52495 -0.56462,0.15475 -0.17143,-0.27739 -0.53989,-0.36331 -0.81879,-0.19094 -0.39007,0.24108 -0.3768,0.39595 0.0575,0.67115 0.43982,0.27868 0.40365,0.35915 -0.16364,0.36412 -0.40053,0.003 -0.72824,0.28726 -0.72824,0.63057 0,0.34331 -0.28089,0.62421 -0.6242,0.62421 -0.34332,0 -0.62421,-0.18727 -0.62421,-0.41614 0,-0.76873 -0.68668,-0.42539 -1.24841,0.6242 -0.66272,1.23832 -1.24841,1.3522 -1.24841,0.24275 z m 9.57114,-5.44445 c 0,-0.22888 -0.0826,-0.41614 -0.18351,-0.41614 -0.10093,0 -0.29924,0.18726 -0.4407,0.41614 -0.14145,0.22887 -0.0589,0.41614 0.18351,0.41614 0.24238,0 0.4407,-0.18727 0.4407,-0.41614 z m 2.91295,-2.91296 c 0,-0.22887 -0.0826,-0.41613 -0.18351,-0.41613 -0.10093,0 -0.29924,0.18726 -0.44069,0.41613 -0.14146,0.22888 -0.0589,0.41614 0.18351,0.41614 0.24238,0 0.44069,-0.18726 0.44069,-0.41614 z m -6.65818,-0.83227 c 0,-0.22887 -0.18726,-0.41613 -0.41614,-0.41613 -0.22887,0 -0.41613,0.18726 -0.41613,0.41613 0,0.22888 0.18726,0.41614 0.41613,0.41614 0.22888,0 0.41614,-0.18726 0.41614,-0.41614 z m 9.57114,-2.08068 c 0,-0.22888 -0.0826,-0.41614 -0.18351,-0.41614 -0.10093,0 -0.29924,0.18726 -0.4407,0.41614 -0.14145,0.22887 -0.0589,0.41614 0.18351,0.41614 0.24238,0 0.4407,-0.18727 0.4407,-0.41614 z m 2.91295,-2.91296 c 0,-0.22887 -0.0826,-0.41613 -0.18351,-0.41613 -0.10093,0 -0.29924,0.18726 -0.44069,0.41613 -0.14146,0.22888 -0.0589,0.41614 0.18351,0.41614 0.24238,0 0.44069,-0.18726 0.44069,-0.41614 z m 2.91296,-2.91295 c 0,-0.22888 -0.18726,-0.41614 -0.41614,-0.41614 -0.22887,0 -0.41614,0.18726 -0.41614,0.41614 0,0.22888 0.18727,0.41614 0.41614,0.41614 0.22888,0 0.41614,-0.18726 0.41614,-0.41614 z m 0.56662,-13.94057 c 0.13174,-0.34331 0.0581,-0.6242 -0.16355,-0.6242 -0.22169,0 -0.40307,0.28089 -0.40307,0.6242 0,0.34331 0.0736,0.62421 0.16354,0.62421 0.0899,0 0.27134,-0.2809 0.40308,-0.62421 z m 2.95276,-6.00522 c 0.13169,-0.21306 0.0491,-0.50501 -0.1835,-0.64877 -0.23261,-0.14376 -0.42293,0.0306 -0.42293,0.38738 0,0.73096 0.24971,0.83859 0.60643,0.26139 z m 13.95835,-5.02239 c 0,-0.22888 -0.0826,-0.41614 -0.18351,-0.41614 -0.10093,0 -0.29925,0.18726 -0.4407,0.41614 -0.14145,0.22887 -0.0589,0.41613 0.18351,0.41613 0.24238,0 0.4407,-0.18726 0.4407,-0.41613 z m 2.785193,-49.82442 c -0.105508,-0.40489 -0.198773,-0.17437 -0.207253,0.51225 -0.008,0.68663 0.07784,1.0179 0.191835,0.73616 0.113988,-0.28174 0.120925,-0.84352 0.01544,-1.24841 z m -2.917063,-8.51271 c -0.13284,-0.33196 -0.23145,-0.23336 -0.25142,0.25142 -0.0181,0.43867 0.0803,0.68446 0.21857,0.54618 0.13827,-0.13828 0.15306,-0.4972 0.0328,-0.7976 z m -14.15731,-4.18737 c -0.11544,-0.28609 -0.20989,-0.052 -0.20989,0.52017 0,0.57219 0.0944,0.80627 0.20989,0.52017 0.11544,-0.28609 0.11544,-0.75425 0,-1.04034 z m -5.26924,-10.48288 c 0,-0.10093 -0.18726,-0.29925 -0.41613,-0.4407 -0.22888,-0.14145 -0.41614,-0.0589 -0.41614,0.18351 0,0.24238 0.18726,0.44069 0.41614,0.44069 0.22887,0 0.41613,-0.0826 0.41613,-0.1835 z m -16.22931,-20.80682 c 0,-0.10093 -0.18727,-0.29925 -0.41614,-0.4407 -0.22888,-0.14145 -0.41614,-0.0589 -0.41614,0.18351 0,0.24238 0.18726,0.44069 0.41614,0.44069 0.22887,0 0.41614,-0.0826 0.41614,-0.1835 z m -5.82591,-5.82591 c 0,-0.10093 -0.18727,-0.29925 -0.41614,-0.4407 -0.22888,-0.14145 -0.41614,-0.0589 -0.41614,0.18351 0,0.24238 0.18726,0.44069 0.41614,0.44069 0.22887,0 0.41614,-0.0826 0.41614,-0.1835 z m -3.74523,-8.13922 c 0,-0.22888 -0.19832,-0.41614 -0.4407,-0.41614 -0.24238,0 -0.32496,0.18726 -0.18351,0.41614 0.14146,0.22887 0.33977,0.41613 0.4407,0.41613 0.10093,0 0.18351,-0.18726 0.18351,-0.41613 z m -9.57114,-3.5126 c 0,-0.10093 -0.18726,-0.29925 -0.41614,-0.4407 -0.22887,-0.14145 -0.41613,-0.0589 -0.41613,0.18351 0,0.24238 0.18726,0.4407 0.41613,0.4407 0.22888,0 0.41614,-0.0826 0.41614,-0.18351 z m -14.56477,-14.79741 c 0,-0.22887 -0.18727,-0.41613 -0.41614,-0.41613 -0.22888,0 -0.41614,0.18726 -0.41614,0.41613 0,0.22888 0.18726,0.41614 0.41614,0.41614 0.22887,0 0.41614,-0.18726 0.41614,-0.41614 z m -2.91296,-4.34487 c 0,-0.10093 -0.18726,-0.29924 -0.41614,-0.44069 -0.22887,-0.14146 -0.41613,-0.0589 -0.41613,0.18351 0,0.24238 0.18726,0.44069 0.41613,0.44069 0.22888,0 0.41614,-0.0826 0.41614,-0.18351 z"
         id="path27"
         transform="translate(55.372469,29.984044)" />
    </g>
  </g>
</svg>
